HIERARCHY
ROOT Hips
{
	OFFSET 0.000000 0.000000 0.000000 
	CHANNELS 6 Xposition Yposition Zposition Yrotation Zrotation Xrotation 
	JOINT Lumbar
	{
		OFFSET 0.000000 0.000000 0.000000 
		CHANNELS 3 Zrotation Xrotation Yrotation
		JOINT Neck
		{
			OFFSET 0.000000 0.445665 0.000000 
			CHANNELS 3 Zrotation Xrotation Yrotation
			End Site
			{
				OFFSET 0.000000 0.227535 0.000000 
			}
		}
		JOINT RightShoulder
		{
			OFFSET 0.019635 0.377685 0.194865 
			CHANNELS 3 Zrotation Xrotation Yrotation
			JOINT RightElbow
			{
				OFFSET 0.000000 -0.243375 0.000000 
				CHANNELS 2 Zrotation Yrotation
				JOINT RightWrist
				{
					OFFSET 0.000000 -0.264825 0.000000 
					CHANNELS 2 Zrotation Xrotation
					End Site
					{
						OFFSET 0.006600 -0.176220 0.000990 
					}
				}
			}
		}
		JOINT LeftShoulder
		{
			OFFSET 0.019635 0.377685 -0.194865 
			CHANNELS 3 Zrotation Xrotation Yrotation
			JOINT LeftElbow
			{
				OFFSET 0.000000 -0.243375 0.000000 
				CHANNELS 2 Zrotation Yrotation
				JOINT LeftWrist
				{
					OFFSET 0.000000 -0.264825 0.000000 
					CHANNELS 2 Zrotation Xrotation
					End Site
					{
						OFFSET 0.006600 -0.176220 -0.000990 
					}
				}
			}
		}
	}
	JOINT RightHip
	{
		OFFSET 0.052140 -0.069960 0.075570 
		CHANNELS 3 Zrotation Xrotation Yrotation
		JOINT RightKnee
		{
			OFFSET 0.000000 -0.402270 0.000000 
			CHANNELS 1 Zrotation
			JOINT RightAnkle
			{
				OFFSET 0.000000 -0.404085 0.000000 
				CHANNELS 3 Zrotation Xrotation Yrotation
				End Site
				{
					OFFSET 0.204105 -0.089430 0.008415 
				}
			}
		}
	}
	JOINT LeftHip
	{
		OFFSET 0.052140 -0.069960 -0.075570 
		CHANNELS 3 Zrotation Xrotation Yrotation
		JOINT LeftKnee
		{
			OFFSET 0.000000 -0.402270 0.000000 
			CHANNELS 1 Zrotation
			JOINT LeftAnkle
			{
				OFFSET 0.000000 -0.404085 0.000000 
				CHANNELS 3 Zrotation Xrotation Yrotation
				End Site
				{
					OFFSET 0.204105 -0.089430 -0.008415 
				}
			}
		}
	}
}
MOTION
Frames: 24
Frame Time: 0.02
-0.41998 -0.38329 0.04248 741.14418 -11.55306 -4.84954 15.39797 3.50926 -14.29569 -11.74718 9.33759 -0.83079 -6.54382 -14.26216 34.18373 101.93836 77.98042 -12.90688 -2.54309 60.08206 30.38418 -3.72168 55.87421 -62.93945 -15.83447 -1.22478 93.39028 -8.2986 -12.16303 -81.11173 -8.7391 -3.68512 -2.66351 96.02762 5.60195 5.70698 -80.83365 -10.61724 3.82716 2.85257
-0.41959 -0.38304 0.043 741.23077 -11.47909 -4.67587 15.19998 3.55845 -14.22287 -11.71862 8.35595 -0.83079 -6.68669 -14.19438 33.78274 101.89455 78.25693 -12.1352 -2.82168 61.09586 30.06071 -5.03125 59.75013 -65.77435 -16.14149 -0.1871 93.27398 -8.3343 -12.01412 -81.09825 -8.70012 -3.66829 -2.65172 95.79942 5.53671 5.83912 -80.69904 -10.60102 3.82216 2.84858
-0.41923 -0.38286 0.04373 741.34422 -11.3097 -4.48032 14.95411 3.60117 -14.12092 -11.69633 7.06304 -0.83079 -6.8522 -14.11708 33.23082 101.80417 78.79834 -10.95351 -3.07604 62.53 29.86774 -6.83219 63.83964 -70.34247 -16.05327 0.79658 93.04675 -8.29237 -11.77075 -81.05385 -8.65459 -3.65956 -2.64462 95.44547 5.44731 5.96386 -80.52703 -10.58024 3.81524 2.84322
-0.41886 -0.38264 0.04437 741.44432 -11.18514 -4.29561 14.73304 3.64649 -14.03151 -11.67539 5.91024 -0.83079 -7.01102 -14.05304 32.75774 101.74085 79.20553 -9.98551 -3.35833 63.76089 29.64833 -8.47782 67.80452 -74.06034 -16.17496 1.80121 92.8718 -8.28304 -11.5696 -81.02307 -8.61209 -3.64737 -2.63557 95.1521 5.37053 6.09105 -80.37371 -10.56253 3.80938 2.83861
-0.41847 -0.38243 0.04501 741.55005 -11.05354 -4.10647 14.50014 3.69404 -13.94007 -11.6375 4.76113 -0.83079 -7.16212 -13.95023 32.23105 101.65575 79.66611 -8.89405 -3.57352 65.03961 29.28789 -9.84006 71.94824 -78.05899 -16.20429 2.84452 92.68679 -8.28696 -11.37317 -80.99351 -8.56857 -3.63382 -2.6255 94.84244 5.28606 6.22208 -80.21243 -10.54052 3.80249 2.83332
-0.41814 -0.38222 0.04568 741.65007 -10.91412 -3.92204 14.27995 3.73507 -13.84815 -11.63574 3.5332 -0.83079 -7.33144 -13.92717 31.78505 101.60423 80.08048 -7.96465 -3.92011 66.31394 29.25126 -11.90317 75.74309 -81.84443 -16.2937 3.7852 92.49701 -8.24531 -11.14558 -80.9545 -8.52582 -3.62504 -2.61867 94.53767 5.21264 6.34359 -80.05947 -10.52629 3.79736 2.82916
-0.41796 -0.38197 0.04635 741.72837 -10.77869 -3.75075 14.10903 3.75989 -13.75824 -11.73688 2.13969 -0.83079 -7.54935 -14.11583 31.58769 101.6507 80.30071 -7.59356 -4.64687 67.55041 30.09976 -15.83528 78.55674 -85.05914 -16.97177 4.45735 92.32405 -8.08138 -10.83264 -80.89438 -8.48805 -3.62921 -2.62085 94.2758 5.1695 6.43746 -79.93503 -10.53631 3.79788 2.8286
-0.41785 -0.38172 0.04703 741.79967 -10.6386 -3.58595 13.9522 3.77817 -13.6702 -11.87335 0.68266 -0.83079 -7.78266 -14.38674 31.48012 101.73288 80.46633 -7.39957 -5.50379 68.75685 31.26616 -20.44268 80.99477 -87.93887 -17.67641 5.02397 92.15014 -7.87637 -10.49492 -80.82629 -8.45126 -3.63767 -2.62598 94.02388 5.13936 6.52231 -79.82102 -10.55408 3.80023 2.82924
-0.41772 -0.3815 0.0477 741.87381 -10.49913 -3.42163 13.78691 3.79924 -13.58448 -11.99038 -0.73024 -0.83079 -8.00596 -14.62759 31.34007 101.8026 80.65873 -7.11817 -6.29359 69.92576 32.27238 -24.70995 83.57675 -90.66132 -18.13579 5.63511 91.97488 -7.70019 -10.1831 -80.76364 -8.41324 -3.64301 -2.62897 93.76829 5.10751 6.61362 -79.70467 -10.5672 3.80156 2.82927
-0.41756 -0.38118 0.0484 741.95079 -10.36195 -3.24208 13.62774 3.82107 -13.48435 -12.12148 -2.22082 -0.83079 -8.24468 -14.83879 31.1595 101.85615 80.8519 -6.84923 -7.11757 71.31796 33.34861 -29.14809 86.28979 -94.67331 -19.507 6.26129 91.80236 -7.47971 -9.80756 -80.69242 -8.37798 -3.65339 -2.63537 93.50387 5.05763 6.6957 -79.57684 -10.58475 3.80357 2.82948
-0.41747 -0.38105 0.04903 742.01928 -10.22099 -3.09604 13.46094 3.8396 -13.41498 -12.23213 -3.55767 -0.83079 -8.4524 -15.12941 31.08657 101.95085 81.02719 -6.60467 -7.89992 72.24162 34.35382 -33.36748 88.62567 -95.99421 -19.06442 6.82921 91.62647 -7.34115 -9.55842 -80.63734 -8.33765 -3.65442 -2.63547 93.26285 5.048 6.79373 -79.47591 -10.59518 3.80467 2.82964
-0.41755 -0.38144 0.04948 742.07074 -10.064 -3.0415 13.25984 3.85279 -13.43109 -12.27265 -4.4781 -0.83079 -8.58995 -15.6362 31.29025 102.16433 81.16426 -6.3613 -8.549 71.79562 35.07495 -36.96066 90.11412 -89.09329 -12.9496 7.28265 91.43247 -7.45322 -9.67944 -80.63102 -8.28003 -3.62663 -2.61601 93.07603 5.15263 6.94858 -79.4467 -10.58238 3.80254 2.82924
-0.41769 -0.38201 0.04986 742.11301 -9.9051 -3.02055 13.05266 3.86252 -13.47796 -12.2922 -5.23548 -0.83079 -8.69249 -16.21679 31.5994 102.41564 81.28434 -6.14236 -9.14887 70.89039 35.714 -40.28225 91.21829 -79.62669 -5.11665 7.67759 91.23728 -7.64708 -9.92638 -80.64102 -8.21786 -3.58961 -2.59034 92.91447 5.29627 7.11795 -79.44441 -10.56245 3.79948 2.82878
-0.41781 -0.38249 0.05027 742.15605 -9.75196 -2.98382 12.85485 3.87243 -13.51041 -12.32469 -6.05068 -0.83079 -8.7978 -16.75273 31.86055 102.64074 81.41225 -5.92973 -9.76307 70.25068 36.39776 -43.63057 92.42676 -71.9279 1.47571 8.08587 91.04926 -7.79417 -10.10603 -80.64221 -8.15986 -3.5581 -2.56846 92.74726 5.41802 7.27361 -79.43 -10.54693 3.79703 2.82843
-0.41793 -0.38302 0.0507 742.21262 -9.57792 -2.94906 12.62948 3.88794 -13.54525 -12.34431 -6.93775 -0.83079 -8.95739 -17.33919 32.12624 102.90508 81.53778 -5.65092 -10.41745 69.37932 37.06502 -47.40672 93.9083 -61.77326 9.94057 8.54583 90.83351 -7.97938 -10.32648 -80.64883 -8.09314 -3.52127 -2.54265 92.55596 5.55772 7.45851 -79.41542 -10.52683 3.79385 2.82775
-0.41806 -0.38347 0.05107 742.23968 -9.44705 -2.91862 12.46008 3.89109 -13.5818 -12.38492 -7.63466 -0.83079 -8.99758 -17.83595 32.40482 103.0963 81.66515 -5.51172 -10.97259 68.87045 37.7385 -50.22375 94.74842 -56.00887 14.99881 8.88632 90.67481 -8.10633 -10.49318 -80.64832 -8.04333 -3.49317 -2.52345 92.42041 5.66921 7.58668 -79.40747 -10.51437 3.79195 2.82773
-0.41828 -0.38369 0.0513 742.1809 -9.43607 -2.88738 12.44503 3.86075 -13.62069 -12.49128 -7.85287 -0.83079 -8.69704 -18.07437 32.70655 103.07554 81.80256 -5.76811 -11.28323 69.57357 38.48648 -50.40703 93.79151 -64.05844 9.47132 8.90544 90.67822 -8.04238 -10.47204 -80.62243 -8.04269 -3.49205 -2.52462 92.43555 5.69243 7.54918 -79.41129 -10.52565 3.79396 2.82964
-0.41851 -0.38382 0.05146 742.09391 -9.4686 -2.86012 12.48673 3.81822 -13.65935 -12.61864 -7.88375 -0.83079 -8.28068 -18.21823 33.01488 102.98002 81.94458 -6.16096 -11.49164 70.64081 39.23535 -49.63997 92.22466 -76.44249 0.57994 8.80775 90.73845 -7.91888 -10.39398 -80.58918 -8.05898 -3.49989 -2.53254 92.50548 5.68598 7.45507 -79.42086 -10.54469 3.79725 2.83219
-0.41873 -0.38397 0.05164 742.02434 -9.48109 -2.83404 12.50356 3.78135 -13.69458 -12.73462 -7.99578 -0.83079 -7.93063 -18.39999 33.31068 102.91886 82.08158 -6.47914 -11.73486 71.47445 39.95729 -49.33932 91.01997 -86.11494 -6.25109 8.76818 90.76971 -7.82965 -10.34802 -80.56046 -8.06658 -3.50318 -2.53693 92.54819 5.6936 7.3906 -79.42762 -10.55952 3.79985 2.83437
-0.419 -0.38419 0.05187 741.93545 -9.49462 -2.7967 12.51646 3.74362 -13.7454 -12.85829 -8.11906 -0.83079 -7.52341 -18.60546 33.64956 102.8567 82.22178 -6.84905 -12.02611 72.5723 40.78701 -48.88668 89.45085 -98.72783 -15.19288 8.70619 90.81364 -7.71357 -10.28103 -80.52724 -8.07811 -3.50811 -2.54301 92.60099 5.7002 7.3104 -79.43586 -10.5769 3.8029 2.83687
-0.41915 -0.38426 0.05198 741.87968 -9.51639 -2.78309 12.5509 3.70514 -13.76382 -12.97039 -8.17646 -0.83079 -7.206 -18.73854 33.90001 102.77927 82.36733 -7.14663 -12.19304 73.22152 41.39544 -48.52488 88.49102 -106.40631 -20.65188 8.66274 90.84539 -7.63729 -10.24155 -80.50151 -8.08569 -3.51191 -2.54732 92.64617 5.70128 7.24898 -79.4424 -10.59104 3.80532 2.83885
-0.41891 -0.3839 0.05177 741.92693 -9.54985 -2.83589 12.63305 3.66478 -13.68788 -13.05243 -8.09835 -0.83079 -7.18436 -18.69061 33.89394 102.66996 82.42836 -7.17997 -12.04658 72.46164 41.37485 -48.67599 89.45355 -98.29196 -14.86645 8.7097 90.82344 -7.69341 -10.30172 -80.49741 -8.07694 -3.51008 -2.54462 92.65064 5.695 7.25617 -79.43948 -10.59305 3.80575 2.8392
-0.41854 -0.3834 0.05144 742.00774 -9.59013 -2.912 12.73477 3.6246 -13.57997 -13.12099 -7.96079 -0.83079 -7.25393 -18.57342 33.79977 102.54907 82.50832 -7.14003 -11.77758 71.2524 41.13481 -48.94695 91.03714 -85.26343 -5.60529 8.77769 90.78825 -7.79004 -10.38944 -80.50114 -8.06388 -3.5069 -2.54003 92.64647 5.68386 7.28359 -79.4351 -10.59178 3.80549 2.83899
-0.41825 -0.38298 0.05116 742.07001 -9.62762 -2.97596 12.82591 3.58625 -13.48994 -13.19109 -7.85128 -0.83079 -7.2688 -18.49043 33.7529 102.43866 82.65006 -7.15578 -11.56204 70.30798 41.00776 -49.14513 92.27666 -75.24674 1.51142 8.8294 90.7634 -7.86213 -10.45706 -80.50176 -8.05366 -3.50461 -2.53668 92.65041 5.6744 7.2998 -79.43353 -10.59287 3.80549 2.83903
